<svg width="200" height="200" viewBox="0 0 200 200" fill="none" xmlns="http://www.w3.org/2000/svg">
<path d="M123.567 60.0686L48.2899 118.034C47.5142 118.119 46.3614 117.927 44.8315 117.455C42.9138 116.855 41.093 115.965 39.3692 114.787C34.4563 111.443 31.4827 106.642 30.4484 100.384C29.4357 94.3826 30.3622 87.942 33.2281 81.0621C34.1762 78.7902 35.3397 76.4433 36.7188 74.0214L39.2399 69.8098C41.2869 66.1877 42.9784 62.6084 44.3144 59.072C46.5338 53.1565 47.1371 48.7842 46.1244 45.9551L47.1587 46.0837C47.9344 46.2337 48.5593 46.5123 49.0333 46.9195C48.9687 46.2337 48.7855 45.43 48.4839 44.5083C47.859 42.6223 46.9647 41.0362 45.8012 39.7503L49.2919 39.268C52.2439 39.2895 55.2391 40.1253 58.2773 41.7757L58.051 40.0075C57.9648 38.8072 58.0834 38.1428 58.4066 38.0142C58.9022 37.8213 59.6132 38.2928 60.5398 39.4288C60.5613 38.4857 60.766 37.4141 61.1539 36.2138C61.9081 33.8562 63.1794 32.0773 64.9679 30.8771L66.7455 34.1241C68.4047 36.4603 70.4302 38.0785 72.822 38.9787C74.9121 39.7931 79.6526 40.4147 87.0435 40.8433C94.1973 41.272 99.2395 42.1507 102.17 43.4796L105.273 43.7368C107.794 44.0583 110.121 44.6477 112.254 45.505C119.128 48.2698 122.899 53.1244 123.567 60.0686Z" fill="#68AE28"/>
<path d="M32.6789 106.685C27.8091 97.5546 28.9727 87.0633 36.1696 75.2109C32.5281 84.7914 33.7563 92.4536 39.8543 98.1976C42.5047 100.684 45.8446 102.506 49.874 103.663C53.8172 104.778 57.9975 105.142 62.4148 104.756L47.3529 118.291C45.155 118.098 42.7094 117.037 40.0159 115.108C36.9346 112.858 34.4889 110.05 32.6789 106.685Z" fill="#56931F"/>
<path d="M153.108 55.8249C155.026 56.6607 156.696 59.5006 158.118 64.3444C159.39 68.7381 159.821 71.8459 159.411 73.6677C161.954 76.604 164.432 82.3373 166.845 90.8676C169.582 100.427 170.045 107.382 168.235 111.732C167.653 113.126 165.951 115.022 163.128 117.423C160.198 119.952 157.3 121.902 154.434 123.274L155.888 125.621C157.052 127.678 158.097 129.897 159.023 132.276C161.975 139.949 163.204 147.9 162.708 156.131C162.557 158.745 160.381 160.889 156.179 162.56C152.063 164.168 147.678 164.704 143.024 164.168C141.451 163.954 139.372 162.121 136.786 158.67C133.834 154.662 132.078 150.504 131.518 146.196C127.574 148.468 124.245 150.001 121.53 150.794L120.69 152.208C119.957 153.366 119.095 154.437 118.104 155.423C114.98 158.595 111.284 160.364 107.018 160.728C102.773 161.092 99.4762 160.76 97.1275 159.731C96.3949 159.41 95.7916 159.035 95.3175 158.606L94.865 158.06L69.0401 158.928L66.3897 161.242C64.0195 162.807 61.2829 163.632 58.18 163.718C53.9351 163.846 50.5952 163.461 48.1603 162.56C45.1006 161.403 42.9243 159.292 41.6314 156.227C39.7567 151.812 38.7655 146.754 38.6578 141.053C38.507 133.637 40.1769 127.571 43.6677 122.856C47.0291 118.312 51.4141 113.683 56.8225 108.968C58.3309 107.66 62.4357 104.338 69.137 99.0013C72.5631 96.3008 75.6121 93.686 78.284 91.1569C80.9991 88.585 82.6475 86.7417 83.2293 85.6272C83.8541 81.3621 84.673 77.0327 85.6857 72.6389C87.7327 63.8515 89.7151 59.1577 91.6329 58.5575C93.5506 57.9789 96.3734 58.5897 100.101 60.3901C101.954 61.3117 103.613 62.2761 105.079 63.2835L107.277 62.5119C109.216 61.9332 111.338 61.4403 113.644 61.033C121.013 59.7685 128.835 59.6935 137.109 60.808C138.359 59.4792 141.117 58.1932 145.384 56.9501C149.499 55.7498 152.074 55.3748 153.108 55.8249Z" fill="#7CBEB3"/>
<path d="M158.959 68.6204L159.605 73.6678L156.276 68.749C156.621 67.313 156.772 65.3733 156.729 62.9299L156.535 59.715C157.526 61.8369 158.334 64.8053 158.959 68.6204Z" fill="#68A198"/>
<path d="M84.9426 74.3107C86.688 66.3377 88.401 61.7296 90.0818 60.4865C89.6724 65.116 89.5323 69.6919 89.6616 74.2143C89.7478 76.872 90.0279 80.9228 90.5019 86.3667C90.7821 89.6031 90.4481 92.4751 89.5 94.9827C88.6596 97.1688 87.5607 98.6584 86.2032 99.4515C84.8672 100.223 83.7683 100.052 82.9064 98.9371C81.9798 97.7154 81.6674 95.615 81.9691 92.6358C82.5724 86.6989 83.5636 80.5905 84.9426 74.3107Z" fill="#68A198"/>
<path d="M143.283 156.034C144.943 159.12 146.925 161.049 149.231 161.821L148.002 164.264C144.749 164.907 141.872 164.061 139.372 161.725C136.377 158.874 133.727 153.698 131.421 146.196C127.694 148.447 123.556 150.129 119.01 151.244C114.528 152.358 109.141 153.034 102.849 153.269C101.858 153.591 101.136 154.277 100.684 155.327C100.231 156.334 100.22 157.245 100.651 158.06L98.8412 160.181L94.9626 157.834C95.0703 157.106 95.6737 154.93 96.7726 151.308C97.85 147.836 98.5287 144.825 98.8089 142.274C99.6277 134.644 97.4944 127.743 92.4092 121.57C96.9342 126.092 104.864 128.932 116.198 130.09C128.308 131.311 138.597 130.218 147.065 126.81C144.35 128.547 142.411 131.247 141.247 134.912C140.213 138.213 139.9 141.867 140.31 145.875C140.719 149.733 141.71 153.119 143.283 156.034Z" fill="#68A198"/>
<path d="M38.3347 137.581C39.2613 145.103 43.3984 149.937 50.7462 152.08C53.5689 152.894 56.5425 153.194 59.6669 152.98C62.5112 152.787 64.8492 152.23 66.6807 151.308L69.0402 159.217C67.3595 160.846 65.097 162.121 62.2527 163.043C56.5641 164.886 50.8432 164.082 45.0899 160.632C42.3103 158.96 40.3171 154.716 39.1104 147.9C38.7226 145.607 38.464 143.282 38.3347 140.924C38.227 138.952 38.227 137.838 38.3347 137.581Z" fill="#68A198"/>
<path d="M107.535 85.1772C108.376 85.0272 109.27 85.1665 110.218 85.5952C106.964 88.0814 105.262 91.8964 105.111 97.0403C104.96 101.734 106.038 106.139 108.343 110.254C103.818 109.761 100.629 108.732 98.7762 107.167C98.2375 106.696 98.0112 105.378 98.0974 103.213C98.1836 100.963 98.5822 98.6049 99.2933 96.1401C101.146 89.5817 103.894 85.9274 107.535 85.1772Z" fill="white"/>
<path d="M118.718 97.4261C119.731 100.127 120.356 102.559 120.593 104.724C120.852 107.039 120.593 108.582 119.817 109.353C119.3 109.868 117.91 110.221 115.648 110.414C113.342 110.586 110.907 110.532 108.343 110.254C106.038 106.139 104.96 101.734 105.111 97.0403C105.262 91.8964 106.964 88.0814 110.218 85.5952C113.428 87.074 116.262 91.0177 118.718 97.4261Z" fill="#D60040"/>
<path d="M156.567 83.5698C159.261 85.7559 160.866 89.0245 161.383 93.3753C161.706 96.0973 161.577 99.923 160.995 104.853C160.047 105.217 159.131 105.463 158.248 105.592C157.343 105.742 156.664 105.742 156.212 105.592C154.94 105.185 154.305 101.948 154.305 95.883C154.283 89.6889 155.037 85.5845 156.567 83.5698Z" fill="#D60040"/>
<path d="M156.567 83.5697C156.955 83.0339 157.365 82.7231 157.796 82.6374C159.886 82.1873 161.911 84.7271 163.872 90.2568C165.79 95.7436 166.167 99.6658 165.003 102.023C164.465 103.138 163.129 104.081 160.995 104.853C161.577 99.923 161.707 96.0972 161.383 93.3752C160.866 89.0244 159.261 85.7559 156.567 83.5697Z" fill="white"/>
<path d="M137.594 80.2905C136.969 80.5262 135.342 79.8725 132.714 78.3294C129.955 76.7433 128.63 75.4467 128.738 74.4393C128.889 73.1105 131.119 71.278 135.429 68.9418C139.803 66.5842 142.712 65.7162 144.155 66.3377C145.082 66.7235 144.597 68.9954 142.701 73.1533C140.783 77.3328 139.081 79.7118 137.594 80.2905Z" fill="#006359"/>
<path d="M123.212 83.0554C123.147 82.7768 123.47 82.2517 124.181 81.4801C124.914 80.6871 125.571 80.2155 126.153 80.0655L126.864 81.0621C127.467 82.0695 128.071 83.484 128.674 85.3058L128.254 86.3025C127.844 87.0312 127.338 87.5348 126.735 87.8135L125.183 86.3346C124.106 85.1558 123.449 84.0627 123.212 83.0554Z" fill="#006359"/>
<path d="M148.196 90.0638C148.864 93.8574 148.918 95.9793 148.358 96.4294C147.862 96.8366 146.354 96.6759 143.833 95.9471C141.29 95.2184 139.846 94.5111 139.501 93.8253C139.609 92.2393 140.428 90.2567 141.958 87.8777C143.531 85.4986 144.802 84.3091 145.772 84.3091C146.72 84.3091 147.528 86.2273 148.196 90.0638Z" fill="#006359"/>
<path d="M150.135 145.971C150.049 144.75 150.803 143.003 152.398 140.731C153.949 138.502 155.069 137.43 155.759 137.516C156.793 137.623 157.504 139.777 157.892 143.978C158.259 148.2 157.925 150.483 156.89 150.826C155.748 151.212 154.38 150.997 152.785 150.183C150.954 149.219 150.07 147.815 150.135 145.971Z" fill="#006359"/>
<path d="M47.6759 127.904L53.009 128.129C55.4008 128.6 56.7798 129.125 57.1461 129.704C57.7495 130.668 57.3509 132.704 55.9502 135.812C54.5712 138.899 53.4076 140.485 52.4595 140.57C51.6407 140.635 49.9815 139.82 47.482 138.127C44.9609 136.434 43.7111 135.255 43.7327 134.591C43.7542 133.733 44.1744 132.512 44.9932 130.926C45.8982 129.147 46.7925 128.139 47.6759 127.904Z" fill="#006359"/>
<path d="M78.4138 100.352C78.9741 101.316 78.0691 103.995 75.6988 108.389C73.3286 112.783 71.5078 115.119 70.2365 115.397C69.0729 115.676 67.1767 115.172 64.5479 113.886C62.0699 112.708 60.4215 111.625 59.6027 110.639C59.3441 110.318 59.5165 109.375 60.1198 107.81L61.0895 105.528L65.4206 102.12C68.3511 99.8265 69.9887 98.637 70.3334 98.5513L74.3736 98.9049C76.7439 99.3121 78.0906 99.7944 78.4138 100.352Z" fill="#006359"/>
<path d="M111.22 88.8422C111.91 88.8422 112.513 89.5173 113.03 90.8676C113.547 92.3036 113.795 94.0932 113.773 96.2365C113.73 98.2726 113.45 99.8801 112.933 101.059C112.459 102.131 111.877 102.666 111.188 102.666C110.541 102.666 109.981 102.088 109.507 100.93C108.99 99.7086 108.71 98.1655 108.667 96.3008C108.58 94.0503 108.817 92.2178 109.378 90.8033C109.873 89.4959 110.487 88.8422 111.22 88.8422Z" fill="white"/>
<path d="M155.048 89.5495L155.695 86.656C155.953 86.3131 156.201 86.1524 156.438 86.1738C156.826 86.1952 157.192 86.6132 157.537 87.4276C158.033 88.5207 158.302 90.0639 158.345 92.0571C158.367 93.9432 158.194 95.4114 157.828 96.4616C157.483 97.4046 157.052 97.8761 156.535 97.8761C156.212 97.8761 155.889 97.6404 155.565 97.1689C155.221 96.6545 154.984 95.9793 154.854 95.1434C154.596 93.6646 154.66 91.7999 155.048 89.5495Z" fill="white"/>
<path d="M141.279 62.287C135.375 61.151 129.396 60.7116 123.341 60.9688C116.833 61.226 110.854 62.2762 105.402 64.1195C105.208 64.1838 104.939 63.9694 104.594 63.4765C104.228 62.9835 104.142 62.6942 104.336 62.6084C110.52 60.5295 117.221 59.415 124.44 59.2649C130.775 59.1149 136.56 59.7043 141.796 61.0331C144.468 61.719 145.739 62.2227 145.61 62.5442L141.279 62.287Z" fill="#0D131A"/>
<path d="M158.733 71.2566C163.107 77.5578 166.296 84.8664 168.3 93.1824C170.045 100.427 170.476 106.031 169.593 109.996C168.623 114.39 163.796 118.891 155.113 123.499C146.494 128.086 138.165 130.626 130.128 131.119C121.531 131.633 113.439 130.926 105.855 128.997C98.2698 127.068 93.3785 124.464 91.1806 121.184C90.4695 120.113 90.2433 119.459 90.5019 119.223C90.782 118.988 91.4176 119.405 92.4088 120.477C95.3178 123.649 100.5 126.071 107.956 127.743C115.045 129.329 122.446 129.886 130.16 129.415C138.219 128.922 146.354 126.403 154.563 121.86C162.45 117.487 166.824 113.351 167.686 109.45C168.591 105.399 168.214 99.9337 166.555 93.0538C164.701 85.3594 161.739 78.4366 157.666 72.2853C155.985 69.7348 155.328 68.3203 155.694 68.0416C156.039 67.763 157.052 68.8347 158.733 71.2566Z" fill="#0D131A"/>
<path d="M83.8438 85.9809C82.4216 88.6386 79.545 91.7999 75.2139 95.4649C72.6282 97.6296 68.2755 101.059 62.156 105.753C56.5751 110.168 52.2656 114.058 49.2274 117.423C45.0471 122.052 42.2674 126.607 40.8884 131.086C39.2292 136.466 39.143 142.51 40.6298 149.219C42.0089 155.541 43.9697 159.442 46.5123 160.921C49.2489 162.507 52.9336 163.203 57.5663 163.011C62.3499 162.818 65.6575 161.703 67.489 159.667C70.3118 156.516 71.4107 151.415 70.7858 144.364C70.1394 137.163 67.9415 131.419 64.1922 127.132C62.727 125.439 62.1021 124.41 62.3176 124.046C62.5331 123.681 63.4488 124.356 65.0649 126.071C69.7839 131.108 72.4127 137.27 72.9514 144.557C73.447 151.48 71.9925 156.838 68.588 160.632C66.5409 162.925 62.8563 164.211 57.534 164.489C52.3841 164.768 48.3008 164.029 45.2841 162.271C42.2243 160.492 39.9834 156.291 38.5612 149.669C37.1175 142.853 37.2576 136.552 38.9814 130.765C40.2958 126.393 42.8923 122.01 46.7709 117.616C49.5937 114.401 53.677 110.639 59.0208 106.331L72.2726 95.6578C77.0562 91.5642 80.6224 87.8027 82.9711 84.3734C83.0788 84.2234 83.2727 84.4056 83.5529 84.92C83.8545 85.4558 83.9515 85.8094 83.8438 85.9809Z" fill="#0D131A"/>
<path d="M91.7626 57.5931C93.0986 57.1645 95.3503 57.5931 98.5178 58.8791C101.707 60.1865 104.325 61.7832 106.372 63.6693C107.988 65.1696 108.613 66.0162 108.247 66.2091C107.902 66.4235 106.911 65.8984 105.273 64.6338C103.161 63.0478 100.716 61.7082 97.9361 60.6152C95.221 59.5221 93.4003 59.1363 92.4737 59.4578C90.9654 59.9507 89.22 63.7551 87.2376 70.8708C85.1475 78.3937 83.79 86.281 83.1651 94.5326C82.9927 96.9117 82.691 98.0048 82.2601 97.8119C81.8076 97.619 81.6244 96.4937 81.7106 94.4362C81.9907 87.299 83.0681 79.8297 84.9428 72.0281C87.076 63.1978 89.3493 58.3861 91.7626 57.5931Z" fill="#0D131A"/>
<path d="M136.076 60.358C137.95 58.9434 140.827 57.5932 144.706 56.3072C149.08 54.8498 152.118 54.5068 153.82 55.2784C155.501 56.0286 157.031 58.5469 158.41 62.8335C159.681 66.82 160.392 70.8279 160.543 74.8573C160.543 75.0502 160.274 74.8466 159.735 74.2465C159.175 73.6464 158.895 73.2391 158.895 73.0248C158.765 69.767 158.011 66.3378 156.632 62.737C155.318 59.3078 154.1 57.336 152.98 56.8216C151.924 56.35 149.511 56.6501 145.74 57.7218C141.926 58.7934 139.211 59.9401 137.595 61.1617C137.444 61.2903 137.11 61.226 136.593 60.9688C136.097 60.6902 135.925 60.4866 136.076 60.358Z" fill="#0D131A"/>
<path d="M137.271 79.3903C138.327 79.3689 139.803 77.3649 141.699 73.3784C143.574 69.4562 144.274 67.3772 143.8 67.1414C142.744 66.6056 140.126 67.3879 135.946 69.4883C131.744 71.5887 129.633 73.2069 129.611 74.3429C129.59 75.0501 130.516 76.0468 132.391 77.3327C134.308 78.6187 135.935 79.3046 137.271 79.3903ZM134.686 68.6203C139.275 66.1555 142.55 65.1053 144.511 65.4697C145.179 65.5983 145.373 66.477 145.093 68.1059C144.835 69.6062 144.253 71.3637 143.348 73.3784C141.085 78.3937 139.06 80.8584 137.271 80.7727C135.849 80.687 133.953 79.8725 131.583 78.3294C129.105 76.7219 127.866 75.3609 127.866 74.2464C127.866 72.939 130.139 71.0636 134.686 68.6203Z" fill="#0D131A"/>
<path d="M128.027 85.4986C128.092 85.3272 127.855 84.5342 127.316 83.1196C126.778 81.6836 126.39 80.9549 126.153 80.9335C125.959 80.912 125.528 81.2014 124.86 81.8015C124.192 82.4016 123.858 82.8517 123.858 83.1517C123.879 83.4304 124.332 84.1591 125.215 85.3379C126.099 86.4738 126.616 87.0418 126.767 87.0418C126.896 87.0418 127.122 86.8275 127.446 86.3988L128.027 85.4986ZM128.092 82.123C128.76 83.709 129.105 84.7914 129.126 85.3701C129.148 85.8416 128.803 86.4846 128.092 87.299C127.359 88.1349 126.81 88.4671 126.444 88.2956C126.013 88.1027 125.269 87.3097 124.213 85.9166C123.071 84.4377 122.543 83.4197 122.63 82.8624C122.716 82.2837 123.222 81.555 124.149 80.6763C125.075 79.8404 125.776 79.4332 126.25 79.4546C126.745 79.4975 127.359 80.3869 128.092 82.123Z" fill="#0D131A"/>
<path d="M145.545 85.2415C144.877 85.1987 143.779 86.4525 142.249 89.003C140.762 91.5321 140.105 93.0431 140.277 93.5361C140.449 93.9861 141.667 94.5327 143.929 95.1757C146.213 95.8187 147.517 95.9901 147.84 95.6901C148.336 95.2185 148.239 93.3646 147.549 90.1282C146.86 86.9133 146.192 85.2844 145.545 85.2415ZM141.15 87.9421C143.024 84.7272 144.5 83.1733 145.578 83.2804C146.935 83.409 148.023 85.6381 148.842 89.9675C149.64 94.2755 149.575 96.6545 148.648 97.1046C147.851 97.5119 146.095 97.2654 143.38 96.3652C140.708 95.4864 139.243 94.7363 138.984 94.1147C138.575 93.1931 139.297 91.1356 141.15 87.9421Z" fill="#0D131A"/>
<path d="M100.069 91.6392C102.59 86.5596 105.295 84.1806 108.182 84.5021C112.254 84.9736 115.756 88.3922 118.686 94.7577C119.915 97.4582 120.723 100.127 121.111 102.763C121.52 105.506 121.38 107.692 120.69 109.321C120.324 110.222 118.945 110.822 116.553 111.122C114.355 111.379 111.802 111.357 108.893 111.057C105.963 110.757 103.463 110.232 101.394 109.482C99.1103 108.689 97.8713 107.778 97.6774 106.749C96.7078 101.863 97.505 96.826 100.069 91.6392ZM115.26 92.0893C112.998 88.2743 110.584 86.2274 108.02 85.9488C107.008 85.8416 105.909 86.3989 104.724 87.6206C102.935 89.4638 101.491 92.1215 100.392 95.5936C99.2289 99.3658 98.8841 102.977 99.3581 106.428C99.5305 107.757 102.752 108.764 109.022 109.45C115.293 110.157 118.697 109.889 119.236 108.646C119.796 107.296 119.699 104.938 118.945 101.573C118.148 98.0584 116.92 94.897 115.26 92.0893Z" fill="#0D131A"/>
<path d="M162.87 89.5173C161.254 85.5308 159.627 83.5376 157.989 83.5376C156.546 83.5376 155.662 86.9347 155.339 93.7289C155.016 100.48 155.425 104.188 156.567 104.853C157.321 105.281 158.743 105.045 160.834 104.145C162.924 103.245 164.055 102.398 164.227 101.605C165.068 97.8118 164.615 93.7825 162.87 89.5173ZM153.82 93.1823C154.186 85.7666 155.576 82.0587 157.989 82.0587C160.079 82.0587 162.105 84.277 164.066 88.7136C166.113 93.3859 166.684 97.7475 165.779 101.798C165.456 103.17 163.861 104.392 160.995 105.463C158.216 106.514 156.449 106.717 155.694 106.074C154.983 105.496 154.455 103.909 154.111 101.316C153.766 98.8299 153.669 96.1186 153.82 93.1823Z" fill="#0D131A"/>
<path d="M69.978 97.9404L75.6342 98.294C77.8321 98.6798 79.0927 99.1835 79.4159 99.8051C79.9977 100.984 78.9418 104.006 76.2484 108.871C73.5549 113.779 71.4971 116.233 70.0749 116.233C68.7174 116.233 66.498 115.558 63.4167 114.208C60.163 112.793 58.5361 111.636 58.5361 110.736C58.5361 110.221 58.7732 109.45 59.2472 108.421L60.7986 105.399C60.9064 105.228 61.1973 105.12 61.6713 105.078C62.1669 105.056 62.3609 105.131 62.2531 105.303C61.6713 106.374 61.2081 107.414 60.8633 108.421C60.5616 109.3 60.4108 109.932 60.4108 110.318C60.497 110.897 61.8868 111.786 64.5803 112.986C67.2091 114.165 69.0299 114.765 70.0426 114.787C70.9907 114.487 72.5422 112.3 74.6969 108.228C76.8517 104.156 77.7782 101.67 77.4766 100.77C77.3042 100.405 76.3776 100.062 74.6969 99.7408L69.6871 99.3871C69.4716 99.4085 69.4177 99.1728 69.5255 98.6798C69.6332 98.2083 69.784 97.9618 69.978 97.9404Z" fill="#0D131A"/>
<path d="M47.9666 128.482C47.2986 128.804 46.5337 129.693 45.6718 131.151C44.8099 132.587 44.4112 133.583 44.4759 134.14C44.5621 134.719 45.7041 135.78 47.902 137.323C50.0998 138.866 51.522 139.595 52.1684 139.509C52.8148 139.424 53.8168 137.945 55.1743 135.073C56.5318 132.201 57.0382 130.583 56.6934 130.218C56.3056 129.832 54.8942 129.382 52.4593 128.868C49.9813 128.354 48.4837 128.225 47.9666 128.482ZM44.3789 130.315C45.3916 128.643 46.3505 127.571 47.2555 127.1L52.8472 127.357C55.95 127.936 57.76 128.632 58.2772 129.447C58.7512 130.197 58.2125 132.297 56.6611 135.748C55.1097 139.177 53.8384 141.074 52.8472 141.438C52.093 141.738 50.3153 140.913 47.5141 138.963C44.6698 136.991 43.1722 135.448 43.0214 134.333C42.9137 133.369 43.3662 132.029 44.3789 130.315Z" fill="#0D131A"/>
<path d="M150.846 145.907V145.939C150.89 147.718 151.762 149.015 153.465 149.829C154.994 150.558 156.029 150.676 156.567 150.183C157.128 149.669 157.322 147.718 157.149 144.332C156.977 140.881 156.47 138.963 155.63 138.577C155.178 138.384 154.262 139.349 152.883 141.471C151.525 143.592 150.846 145.071 150.846 145.907ZM151.784 140.377C153.443 137.741 154.725 136.434 155.63 136.455C157.095 136.477 158.011 138.802 158.377 143.432C158.744 147.975 158.442 150.601 157.472 151.308C156.675 151.908 155.221 151.801 153.109 150.987C150.696 150.044 149.457 148.468 149.392 146.261C149.37 144.932 150.168 142.971 151.784 140.377Z" fill="#0D131A"/>
<path d="M165.973 108.485C165.951 109.321 165.833 110.007 165.617 110.543L164.971 111.604C163.915 112.847 161.394 114.412 157.407 116.298C153.292 118.248 149.726 119.523 146.709 120.123C141.214 121.238 132.778 121.334 121.401 120.413C110.024 119.513 102.838 118.162 99.8428 116.362C99.3472 116.041 98.8947 115.515 98.4852 114.787C98.1189 114.165 97.8496 113.479 97.6772 112.729C97.354 111.379 97.3324 110.618 97.6126 110.447C97.8927 110.275 98.3344 110.897 98.9378 112.311C99.3041 113.147 99.6919 113.79 100.101 114.24L101.394 115.205C103.808 116.512 110.261 117.669 120.755 118.677C132.11 119.77 140.665 119.738 146.418 118.58C149.004 118.044 152.074 117.005 155.63 115.462C158.927 114.026 161.394 112.718 163.031 111.54C163.635 111.09 164.076 110.629 164.357 110.157C164.658 109.664 164.852 109.064 164.938 108.357C165.089 107.071 165.305 106.471 165.585 106.556C165.865 106.664 165.994 107.307 165.973 108.485Z" fill="#0D131A"/>
<path d="M116.973 82.0908C117.727 82.7767 118.46 83.6126 119.171 84.5985C119.925 85.6272 120.464 86.5596 120.787 87.3955C121.261 88.5957 121.283 89.2708 120.852 89.4209C120.399 89.5495 119.893 89.0779 119.333 88.0063C118.406 86.1845 117.275 84.5342 115.939 83.0553C114.689 81.6193 114.194 80.7834 114.452 80.5477C114.732 80.3119 115.573 80.8263 116.973 82.0908Z" fill="#0D131A"/>
<path d="M153.399 82.3159C152.99 83.4947 152.731 84.7593 152.624 86.1095C152.537 87.2883 152.268 87.867 151.816 87.8456C151.363 87.8456 151.169 87.2669 151.234 86.1095C151.298 84.695 151.665 83.3018 152.333 81.9301C152.936 80.7085 153.378 80.1298 153.658 80.1941C153.916 80.2798 153.83 80.9871 153.399 82.3159Z" fill="#0D131A"/>
<path d="M139.21 116.008C138.736 115.773 138.359 115.473 138.079 115.108C137.799 114.765 137.702 114.519 137.788 114.369L138.79 114.401C139.415 114.529 139.878 114.733 140.18 115.012C140.568 115.397 140.643 115.73 140.406 116.008C140.169 116.287 139.771 116.287 139.21 116.008Z" fill="#0D131A"/>
<path d="M150.233 114.401C149.78 114.958 149.371 115.151 149.004 114.98C148.638 114.808 148.616 114.455 148.94 113.919C149.177 113.533 149.554 113.19 150.071 112.89C150.545 112.59 150.847 112.493 150.976 112.601C151.062 112.686 151.041 112.911 150.911 113.276L150.233 114.401Z" fill="#0D131A"/>
<path d="M111.382 85.7558C111.576 85.8201 111.662 86.1309 111.64 86.6881C111.619 87.2454 111.522 87.4704 111.349 87.3633C110.25 86.6774 109.216 87.2025 108.246 88.9386C107.341 90.5246 106.717 92.7215 106.372 95.5292C106.005 98.4226 106.049 101.123 106.501 103.631C107.04 106.481 108.042 108.518 109.507 109.739C109.679 109.868 109.572 110.061 109.184 110.318C108.796 110.554 108.516 110.607 108.343 110.479C106.577 109.171 105.359 107.006 104.691 103.984C104.109 101.262 104.045 98.3476 104.497 95.2399C104.95 92.175 105.779 89.7316 106.986 87.9098C108.3 85.9594 109.766 85.2414 111.382 85.7558Z" fill="#0D131A"/>
<path d="M156.018 83.8269C156.772 83.2482 157.645 83.4947 158.636 84.5663C159.627 85.6165 160.479 87.1811 161.19 89.2601C162.957 94.4683 163.032 99.5907 161.416 104.627C161.351 104.82 161.103 104.96 160.673 105.045C160.242 105.11 160.048 105.045 160.091 104.853C161.405 100.78 161.448 96.1615 160.22 90.9962C159.724 88.9172 159.11 87.2776 158.378 86.0773C157.645 84.8557 156.977 84.4056 156.374 84.7271C156.201 84.8342 156.061 84.7378 155.954 84.4377C155.846 84.1591 155.867 83.9555 156.018 83.8269Z" fill="#0D131A"/>
<path d="M153.626 123.756C153.518 123.585 153.744 123.328 154.305 122.985C154.843 122.62 155.156 122.524 155.242 122.695C161.362 132.533 164.087 144.01 163.419 157.127C163.355 158.349 162.417 159.613 160.607 160.921C158.884 162.164 156.75 163.203 154.208 164.039C148.045 166.054 143.412 165.979 140.309 163.814C138.262 162.378 136.14 159.635 133.942 155.584C131.83 151.705 130.753 148.758 130.71 146.743C130.71 146.55 131.012 146.336 131.615 146.1L132.488 146.004C132.531 147.997 133.533 150.815 135.494 154.459C137.584 158.338 139.685 161.017 141.796 162.496C144.49 164.361 148.551 164.414 153.982 162.657C156.179 161.95 158.032 161.071 159.541 160.021C161.114 158.949 161.922 157.963 161.965 157.063C162.59 144.803 159.81 133.701 153.626 123.756Z" fill="#0D131A"/>
<path d="M135.558 144.139C129.977 148.49 123.319 151.437 115.584 152.98C108.408 154.395 101.998 154.32 96.3523 152.755C96.1583 152.691 96.126 152.358 96.2553 151.758C96.363 151.18 96.5139 150.912 96.7078 150.955C102.246 152.498 108.441 152.594 115.293 151.244C122.253 149.872 128.566 147.268 134.233 143.432C136.388 141.974 137.584 141.395 137.821 141.696C138.036 141.974 137.282 142.789 135.558 144.139Z" fill="#0D131A"/>
<path d="M120.464 150.633C120.572 150.462 121.068 150.312 121.951 150.183L123.115 150.279C121.434 153.023 119.355 155.413 116.877 157.449C114.032 159.785 111.242 161.124 108.505 161.467L98.8088 161.178C96.2662 160.557 94.7686 159.613 94.3161 158.349C94.2515 158.156 94.4131 157.835 94.8009 157.384C95.1672 156.913 95.3827 156.774 95.4474 156.967C95.8783 158.167 97.2035 159.067 99.4229 159.667C101.836 160.331 104.799 160.449 108.311 160.021C110.358 159.764 112.524 158.745 114.808 156.967C117.07 155.209 118.956 153.098 120.464 150.633Z" fill="#0D131A"/>
<path d="M45.2515 45.3442C45.4239 45.2156 45.8441 45.2156 46.5121 45.3442C47.5464 45.5371 48.4514 45.9979 49.2271 46.7267C49.3995 46.8553 49.4103 47.0589 49.2594 47.3375C49.1301 47.5947 48.9793 47.659 48.8069 47.5304C48.3544 47.1446 47.9127 46.8874 47.4817 46.7588L46.8676 46.7267L46.9969 47.7554L47.1908 49.6844C47.2555 52.5993 46.2966 56.4143 44.3142 61.1295C42.7628 64.8803 40.7696 68.7596 38.3347 72.7676C30.6637 85.4344 28.9722 96.3651 33.2602 105.56C34.8763 109.032 37.1927 111.872 40.2094 114.079C42.8813 116.008 45.4455 117.059 47.9019 117.23C48.0958 117.251 48.0635 117.498 47.805 117.969C47.5679 118.462 47.3417 118.698 47.1262 118.677C44.2604 118.484 41.3945 117.359 38.5287 115.301C35.3396 112.986 32.9155 109.986 31.2563 106.299C26.9468 96.7402 28.8106 85.3487 36.8479 72.1246C40.6403 65.8662 43.2153 60.7223 44.5728 56.6929C46.0165 52.4278 46.2535 48.9664 45.2839 46.3087C45.0899 45.8158 45.0792 45.4943 45.2515 45.3442Z" fill="#0D131A"/>
<path d="M61.9942 44.219C62.1451 44.3691 62.1451 44.6048 61.9942 44.9263C61.8434 45.2693 61.6926 45.3657 61.5417 45.2157C59.9256 43.5439 57.8247 42.2044 55.239 41.197C52.8041 40.2754 50.617 39.8682 48.6777 39.9753C47.7727 40.0396 47.2879 40.1575 47.2233 40.329C47.1586 40.479 47.3741 40.9398 47.8697 41.7114C50.2184 45.3979 50.283 50.8418 48.0636 58.0432C46.857 61.9011 44.9715 66.7021 42.4074 72.4461C38.615 82.3695 38.3133 91.2213 41.5023 99.0014C42.8168 102.216 44.6375 104.938 46.9647 107.167C49.1195 109.246 51.4466 110.65 53.9462 111.379C54.1185 111.422 53.9892 111.636 53.5583 112.022C53.1273 112.386 52.8149 112.547 52.621 112.504C46.0058 110.575 41.47 105.667 39.0136 97.7797C36.4494 89.6138 37.0743 80.9121 40.8882 71.6745L43.7325 65.2768C45.09 62.1476 46.1136 59.4149 46.8031 57.0788C48.9148 50.0488 48.667 44.8727 46.0597 41.5507C45.1762 40.4147 44.7668 39.686 44.8315 39.3645C44.8961 39.0001 45.5425 38.743 46.7708 38.5929C49.0764 38.2929 51.6621 38.6465 54.5279 39.6538C57.5662 40.7255 60.0549 42.2472 61.9942 44.219Z" fill="#0D131A"/>
<path d="M59.7319 38.0142L60.9278 38.9787C61.0571 39.1287 61.0248 39.4395 60.8308 39.911C60.6369 40.3611 60.4753 40.5111 60.346 40.3611L59.6673 39.5574C59.2794 39.1716 58.9885 39.0215 58.7946 39.1073C58.6222 39.193 58.5576 39.4716 58.6007 39.9431L58.8915 41.7757C58.9346 41.9471 58.7623 42.0328 58.3744 42.0328C57.9865 42.0114 57.7818 41.9042 57.7603 41.7114L57.4371 39.7181C57.3509 38.625 57.5233 37.907 57.9542 37.5641C58.3205 37.2855 58.9131 37.4355 59.7319 38.0142Z" fill="#0D131A"/>
<path d="M109.313 47.0803C113.946 50.7882 116.38 55.2676 116.617 60.5187C116.639 60.733 116.359 60.8938 115.777 61.0009C115.195 61.1295 114.904 61.0867 114.904 60.8723C114.689 56.0714 112.513 51.9241 108.375 48.4306C103.398 44.2297 96.438 41.9686 87.4957 41.6471C79.8463 41.3684 74.3731 40.5219 71.0763 39.1073C68.4044 37.9713 66.4759 36.0531 65.2908 33.3526C65.0322 32.7739 64.8167 32.4631 64.6443 32.4202C64.4504 32.3559 64.138 32.5703 63.707 33.0632C62.2633 34.6493 61.4122 36.5889 61.1536 38.8822C60.895 41.2399 61.3906 43.0724 62.6404 44.3798C65.1615 46.9517 67.1547 49.9845 68.6199 53.478C69.5249 55.6427 70.6238 59.2542 71.9167 64.3123C73.4897 70.4635 75.2243 75.0395 77.1205 78.0401C78.6504 80.462 80.8913 82.6481 83.8434 84.5985C83.9726 84.6628 83.8865 84.9736 83.5848 85.5308C83.3047 86.0667 83.0784 86.281 82.906 86.1738C79.1136 83.6876 76.3878 81.0514 74.7287 78.2651C73.1988 75.6932 71.7228 71.5137 70.3006 65.7269C68.7707 59.4471 67.6287 55.3641 66.8745 53.478C65.711 50.4988 63.9548 47.7983 61.6061 45.3764C59.9254 43.6403 59.3867 41.0791 59.99 37.6927C60.5718 34.4992 61.7462 32.2166 63.5131 30.8449C64.3104 30.2234 64.8706 29.9447 65.1938 30.009C65.517 30.0733 65.8295 30.5234 66.1311 31.3593C67.424 34.7028 69.2771 36.9104 71.6904 37.9821C74.4055 39.1609 79.6846 39.9003 87.528 40.2004C96.7504 40.5219 104.012 42.8152 109.313 47.0803Z" fill="#0D131A"/>
<path d="M118.751 48.6878C122.866 52.2027 124.644 56.0071 124.084 60.1007C124.062 60.2936 123.739 60.3794 123.114 60.3579C122.489 60.3365 122.188 60.2293 122.209 60.0364C122.683 56.5215 121.283 53.2208 118.007 50.1345C114.237 46.5981 108.99 44.5834 102.267 44.0904C102.051 44.069 101.426 43.8118 100.392 43.3188C99.3364 42.8044 98.9054 42.5472 99.0993 42.5472C107.417 42.5472 113.967 44.5941 118.751 48.6878Z" fill="#0D131A"/>
<path d="M67.7153 131.536C68.8788 127.014 70.5057 123.628 72.5958 121.377L96.5461 128.322C98.6362 136.252 98.8409 143.807 97.1602 150.987C96.1475 155.252 94.5637 159.056 92.4089 162.4C91.2454 164.222 88.8751 165.422 85.2982 166C81.5273 166.622 77.8965 166.247 74.4058 164.875C71.8632 163.889 69.87 161.478 68.4263 157.642C67.0904 154.148 66.3685 149.958 66.2608 145.071C66.153 140.292 66.6379 135.78 67.7153 131.536Z" fill="#7CBEB3"/>
<path d="M72.8542 140.378C72.9835 139.07 74.5672 137.302 77.6055 135.073C80.6437 132.844 82.5722 132.04 83.391 132.662C84.2314 133.283 84.393 136.67 83.8759 142.821C83.3587 148.972 82.5722 152.091 81.5164 152.176C80.8915 152.219 79.2754 150.505 76.6681 147.032C74.0393 143.517 72.768 141.299 72.8542 140.378Z" fill="#006359"/>
<path d="M67.1013 132.887C67.2091 142.081 69.2884 149.744 73.3394 155.873C77.218 161.81 82.0662 165.079 87.8841 165.679C85.5139 166.279 82.9497 166.472 80.1916 166.258C74.6754 165.829 70.9584 163.557 69.0406 159.442C67.1229 155.348 66.2287 149.69 66.358 142.467L67.1013 132.887Z" fill="#68A198"/>
<path d="M71.206 124.914C68.4048 129.693 67.1335 136.541 67.3921 145.457C67.6722 154.738 69.6331 160.707 73.2746 163.364C75.7526 165.165 79.071 165.883 83.2297 165.518C87.2375 165.154 89.8879 164.061 91.1808 162.239C94.1113 158.102 96.029 153.109 96.934 147.257C97.7528 141.985 97.6451 136.97 96.6108 132.212C96.0936 129.833 96.029 128.557 96.4169 128.386C96.8047 128.214 97.3219 129.286 97.9683 131.601C99.3043 136.423 99.5736 141.642 98.7763 147.257C97.9144 153.366 95.9428 158.606 92.8615 162.978C91.267 165.229 87.9702 166.547 82.9711 166.933C78.0798 167.297 74.3951 166.579 71.9171 164.779C70.1287 163.471 68.6526 161.157 67.4891 157.835C66.3686 154.662 65.6898 151.019 65.4528 146.904C64.871 137.559 66.3578 130.004 69.9132 124.239C71.1629 122.202 72.0249 121.227 72.4989 121.313C72.9945 121.377 72.5635 122.578 71.206 124.914Z" fill="#0D131A"/>
<path d="M73.63 140.056C73.587 140.806 74.6967 142.907 76.9592 146.357C79.2648 149.872 80.7408 151.587 81.3872 151.501C82.0983 151.394 82.6801 148.49 83.1326 142.789C83.5851 137.066 83.4774 133.969 82.8094 133.498C82.1845 133.069 80.5038 133.873 77.7672 135.909C75.0522 137.945 73.6731 139.327 73.63 140.056ZM72.1433 139.735C72.2079 138.17 74.0071 136.198 77.541 133.819C81.0101 131.504 83.0895 130.668 83.779 131.311C84.9211 132.405 85.2443 136.123 84.7487 142.467C84.2315 148.811 83.3157 152.359 82.0013 153.109C81.0963 153.644 79.2109 151.951 76.3451 148.029C73.4792 144.128 72.0786 141.363 72.1433 139.735Z" fill="#0D131A"/>
<path d="M47.7727 162.464C47.665 162.143 48.0744 161.596 49.0009 160.824C49.949 160.053 50.6601 159.699 51.1341 159.763C51.996 159.871 52.5886 160.803 52.9118 162.56C53.2135 164.189 53.235 165.122 52.9765 165.357C52.6748 165.636 51.8344 165.465 50.4554 164.843C48.9686 164.179 48.0744 163.386 47.7727 162.464Z" fill="white"/>
<path d="M57.4046 164.875C55.8963 164.189 55.1421 163.504 55.1421 162.818C55.1421 162.218 55.5838 161.489 56.4673 160.632C57.3292 159.774 57.9864 159.453 58.4389 159.667C59.15 160.01 59.7318 161.017 60.1843 162.689C60.6152 164.297 60.6368 165.229 60.2489 165.486C59.8395 165.765 58.8914 165.561 57.4046 164.875Z" fill="white"/>
<path d="M62.4792 162.914C62.3284 161.8 62.7378 160.771 63.7074 159.828L65.2265 158.735C66.0238 159.078 66.6487 160.106 67.1012 161.821C67.5106 163.364 67.6075 164.264 67.3921 164.522L64.8387 164.457C63.3303 164.093 62.5438 163.579 62.4792 162.914Z" fill="white"/>
<path d="M75.1817 165.615C75.1386 165.057 75.3325 164.457 75.7634 163.814C76.2806 163.043 76.9378 162.668 77.7351 162.689C78.5323 162.71 79.1464 163.011 79.5774 163.589C79.9222 164.125 80.073 164.779 80.0299 165.55C79.9868 166.258 79.739 167.051 79.2865 167.929C78.8555 168.808 78.5108 169.248 78.2522 169.248C77.9721 169.248 77.4118 168.787 76.5715 167.865C75.688 166.901 75.2248 166.15 75.1817 165.615Z" fill="white"/>
<path d="M81.6133 166.322C81.5487 165.272 81.8396 164.404 82.486 163.718C83.0031 163.139 83.5203 162.85 84.0374 162.85C84.4253 162.85 84.8778 163.139 85.3949 163.718C85.9121 164.318 86.2353 164.918 86.3646 165.518C86.4508 165.904 86.3538 166.568 86.0737 167.511C85.7936 168.519 85.4596 169.119 85.0717 169.312C84.6839 169.526 84.0374 169.29 83.1324 168.605C82.1628 167.897 81.6564 167.136 81.6133 166.322Z" fill="white"/>
<path d="M87.9813 166.129C87.378 165.486 87.4319 164.511 88.1429 163.203C88.854 161.896 89.5543 161.339 90.2438 161.532C90.8903 161.746 91.5152 162.646 92.1185 164.232C92.6787 165.754 92.8188 166.729 92.5387 167.158C92.2801 167.544 91.6121 167.629 90.5347 167.415C89.4358 167.179 88.5847 166.751 87.9813 166.129Z" fill="white"/>
<path d="M98.97 160.278C98.8838 159.828 99.304 159.271 100.231 158.606C101.136 157.963 101.793 157.727 102.202 157.899C102.913 158.22 103.376 159.12 103.592 160.599C103.807 162.035 103.721 162.839 103.333 163.011C102.946 163.182 102.181 162.978 101.039 162.4C99.8104 161.757 99.1208 161.049 98.97 160.278Z" fill="white"/>
<path d="M107.729 162.464C106.415 162.014 105.65 161.5 105.434 160.921C105.24 160.428 105.574 159.721 106.436 158.799C107.298 157.899 107.923 157.535 108.311 157.706C109.065 158.027 109.593 158.853 109.895 160.181C110.153 161.339 110.175 162.132 109.959 162.561L107.729 162.464Z" fill="white"/>
<path d="M111.252 159.796C110.994 159.281 111.36 158.542 112.351 157.577C113.321 156.634 114.021 156.248 114.452 156.42C114.948 156.634 115.432 157.417 115.906 158.767C116.359 160.096 116.477 160.91 116.262 161.21L113.806 161.146C112.383 160.803 111.532 160.353 111.252 159.796Z" fill="white"/>
<path d="M147.905 164.747C147.603 164.447 147.84 163.675 148.616 162.432C149.392 161.167 150.049 160.546 150.588 160.567C151.299 160.61 152.096 161.382 152.98 162.882C153.82 164.297 154.143 165.132 153.949 165.39C153.712 165.69 152.796 165.786 151.202 165.679C149.543 165.572 148.444 165.261 147.905 164.747Z" fill="white"/>
<path d="M154.951 162.978C154.65 162.657 154.843 161.853 155.533 160.567C156.201 159.281 156.783 158.66 157.278 158.703C157.752 158.745 158.42 159.496 159.282 160.953C160.101 162.389 160.435 163.268 160.284 163.589C160.09 163.911 159.304 164.029 157.925 163.943C156.46 163.857 155.468 163.536 154.951 162.978Z" fill="white"/>
<path d="M160.349 160.021C160.004 159.592 160.112 158.778 160.672 157.577C161.211 156.42 161.642 155.863 161.965 155.906C162.525 155.97 163.215 156.677 164.034 158.027C164.831 159.356 165.132 160.192 164.939 160.535C164.788 160.899 164.109 161.039 162.902 160.953C161.631 160.867 160.78 160.556 160.349 160.021Z" fill="white"/>
<path d="M49.1624 160.632L50.5846 162.4C51.5327 163.707 52.0606 164.725 52.1684 165.454L49.9058 164.297C48.419 163.461 47.7187 162.861 47.8049 162.496C47.8911 162.132 48.1497 161.714 48.5807 161.242L49.1624 160.632Z" fill="#DBDCDC"/>
<path d="M56.4351 160.76L57.6633 162.271C58.5252 163.471 59.0962 164.554 59.3763 165.518C56.726 164.597 55.3685 163.686 55.3038 162.786C55.2607 162.228 55.4331 161.725 55.821 161.275L56.4351 160.76Z" fill="#DBDCDC"/>
<path d="M66.584 164.747C65.205 164.446 64.2138 164.146 63.6105 163.846C62.9209 163.525 62.5331 163.128 62.4469 162.657C62.3607 162.25 62.4469 161.778 62.7054 161.242L63.1256 160.567C63.7074 160.846 64.4185 161.532 65.2589 162.625C65.9699 163.568 66.4117 164.275 66.584 164.747Z" fill="#DBDCDC"/>
<path d="M76.4745 163.364L76.7977 165.325C77.0779 166.804 77.4226 167.962 77.832 168.797L76.6038 167.737C75.8065 166.858 75.4295 165.958 75.4726 165.036C75.5156 164.393 75.6773 163.921 75.9574 163.621C76.1729 163.386 76.3452 163.3 76.4745 163.364Z" fill="#DBDCDC"/>
<path d="M82.2923 164.393L83.5205 166.386L85.1365 169.344C84.5332 169.151 83.9299 168.872 83.3265 168.508C82.1199 167.779 81.5596 166.997 81.6458 166.161C81.732 165.347 81.8613 164.811 82.0337 164.554L82.2923 164.393Z" fill="#DBDCDC"/>
<path d="M88.1425 163.236L89.6616 164.682C90.739 165.775 91.3962 166.686 91.6332 167.415L89.6293 166.772C88.2933 166.258 87.6469 165.754 87.69 165.261L87.9486 163.814L88.1425 163.236Z" fill="#DBDCDC"/>
<path d="M100.037 158.831C100.231 158.96 100.64 159.442 101.265 160.278C102.041 161.328 102.472 162.175 102.558 162.818L100.231 161.725C99.6275 161.36 99.315 160.899 99.2935 160.342C99.272 159.935 99.3905 159.56 99.649 159.217L100.037 158.831Z" fill="#DBDCDC"/>
<path d="M106.081 159.024L107.148 159.764C107.966 160.514 108.678 161.5 109.281 162.721L107.536 162.239C106.35 161.81 105.693 161.317 105.564 160.76C105.435 160.203 105.478 159.753 105.693 159.41L106.081 159.024Z" fill="#DBDCDC"/>
<path d="M112.157 157.738L113.483 158.703C114.431 159.538 115.077 160.406 115.422 161.307L113.58 161.049C112.287 160.728 111.522 160.246 111.285 159.603C111.155 159.303 111.209 158.928 111.446 158.477C111.662 158.049 111.899 157.802 112.157 157.738Z" fill="#DBDCDC"/>
<path d="M148.745 162.271C150.555 163.128 152.01 164.2 153.109 165.486L150.685 165.518C149.068 165.432 148.228 165.111 148.163 164.554C148.099 163.996 148.174 163.45 148.39 162.914L148.745 162.271Z" fill="#DBDCDC"/>
<path d="M155.5 160.889C155.867 160.996 156.481 161.317 157.343 161.853C158.506 162.56 159.228 163.236 159.508 163.879L157.246 163.782C155.716 163.611 154.94 163.278 154.918 162.785C154.875 162.314 154.962 161.853 155.177 161.403L155.5 160.889Z" fill="#DBDCDC"/>
<path d="M160.607 157.738L162.029 158.606C163.085 159.335 163.818 160.106 164.227 160.921L162.547 160.792C161.383 160.621 160.661 160.331 160.381 159.924C160.101 159.517 160.058 159.024 160.252 158.445L160.607 157.738Z" fill="#DBDCDC"/>
<path d="M147.291 164.939C147.119 164.318 147.464 163.321 148.325 161.95C149.187 160.556 149.931 159.849 150.556 159.828C151.181 159.806 152.053 160.621 153.174 162.271C154.273 163.879 154.747 164.972 154.596 165.55C154.467 166.065 153.26 166.225 150.976 166.033C148.692 165.84 147.464 165.475 147.291 164.939ZM149.392 162.432C148.853 163.289 148.638 163.911 148.746 164.296C148.961 164.597 149.726 164.843 151.04 165.036C152.312 165.229 153.001 165.218 153.109 165.004C153.217 164.768 152.926 164.082 152.236 162.946C151.504 161.789 150.933 161.199 150.523 161.178C150.286 161.157 149.909 161.575 149.392 162.432Z" fill="#0D131A"/>
<path d="M159.605 163.332C159.735 163.139 159.455 162.453 158.765 161.274C158.097 160.096 157.591 159.474 157.246 159.41C156.987 159.388 156.621 159.838 156.147 160.76C155.651 161.682 155.447 162.325 155.533 162.689C155.598 163.011 156.276 163.246 157.569 163.396L159.605 163.332ZM157.408 157.963C158.097 158.049 158.916 159.003 159.864 160.824C160.769 162.56 161.125 163.632 160.931 164.039C160.737 164.468 159.713 164.597 157.86 164.425C155.964 164.232 154.822 163.868 154.434 163.332C154.089 162.861 154.315 161.842 155.113 160.278C155.91 158.649 156.675 157.877 157.408 157.963Z" fill="#0D131A"/>
<path d="M161.092 157.931C160.769 158.66 160.704 159.26 160.898 159.731C160.985 159.989 161.556 160.192 162.611 160.342L164.324 160.246C164.454 160.031 164.227 159.41 163.646 158.381C163.064 157.288 162.558 156.752 162.127 156.774C161.76 156.816 161.415 157.202 161.092 157.931ZM160.381 157.127C161.049 155.906 161.62 155.295 162.094 155.295C162.891 155.295 163.732 156.184 164.615 157.963C165.477 159.678 165.779 160.749 165.52 161.178L162.644 161.274C160.877 161.06 159.918 160.76 159.767 160.374C159.444 159.538 159.649 158.456 160.381 157.127Z" fill="#0D131A"/>
<path d="M85.0715 164.168C84.7052 163.739 84.3497 163.546 84.0049 163.589C83.5093 163.611 83.0676 163.921 82.6797 164.522C82.2919 165.1 82.1303 165.657 82.1949 166.193C82.2596 166.686 82.6797 167.244 83.4555 167.865C84.2096 168.444 84.716 168.68 84.9746 168.572C85.1469 168.508 85.3301 168.197 85.524 167.64C85.7826 166.997 85.8688 166.397 85.7826 165.84C85.718 165.175 85.4809 164.618 85.0715 164.168ZM81.7101 163.75C82.4427 162.678 83.24 162.175 84.1019 162.239C84.7268 162.282 85.287 162.603 85.7826 163.203C86.2782 163.804 86.5906 164.543 86.7199 165.422C86.8708 166.279 86.8061 167.211 86.526 168.219C86.2459 169.205 85.9011 169.773 85.4917 169.923C84.9746 170.116 84.145 169.837 83.003 169.087C81.7747 168.251 81.0744 167.34 80.9021 166.354C80.7728 165.604 81.0421 164.736 81.7101 163.75Z" fill="#0D131A"/>
<path d="M78.8988 164.104C78.6186 163.718 78.3062 163.503 77.9614 163.461C77.552 163.418 77.1211 163.589 76.6686 163.975C76.1945 164.361 75.9575 164.779 75.9575 165.229C75.979 165.786 76.2915 166.45 76.8948 167.222C77.4335 167.951 77.8322 168.315 78.0907 168.315C78.3278 168.294 78.5863 167.983 78.8664 167.383C79.1681 166.783 79.3297 166.183 79.3513 165.582C79.3728 165.025 79.222 164.532 78.8988 164.104ZM75.5696 163.043C76.3669 162.335 77.1965 162.035 78.0584 162.142C78.7695 162.228 79.3836 162.614 79.9007 163.3C80.3963 163.986 80.6226 164.747 80.5795 165.582C80.5579 166.268 80.2886 167.147 79.7714 168.219C79.2112 169.333 78.7264 169.912 78.317 169.955C77.8429 170.019 77.0995 169.472 76.0868 168.315C75.0094 167.115 74.4492 166.097 74.4061 165.261C74.363 164.468 74.7508 163.728 75.5696 163.043Z" fill="#0D131A"/>
<path d="M91.3425 163.461C90.8469 162.775 90.3944 162.432 89.985 162.432C89.5756 162.389 89.1662 162.689 88.7568 163.332C88.3259 163.996 88.1642 164.618 88.272 165.197C88.3797 165.711 88.9831 166.161 90.082 166.547C91.1378 166.89 91.7519 166.986 91.9243 166.836C92.0751 166.708 92.1075 166.258 92.0213 165.486C91.9351 164.65 91.7088 163.975 91.3425 163.461ZM90.2113 161.017C91.2671 161.167 92.0967 162.271 92.7 164.329C93.2603 166.258 93.368 167.415 93.0232 167.801L89.985 167.608C88.175 167.115 87.1946 166.472 87.0438 165.679C86.8714 164.8 87.1192 163.793 87.7872 162.657C88.5198 161.435 89.3278 160.889 90.2113 161.017Z" fill="#0D131A"/>
<path d="M67.6828 161.564C68.2215 163.621 68.2753 164.779 67.8444 165.036C67.2841 165.357 66.1852 165.293 64.5476 164.843C62.8453 164.372 61.8972 163.804 61.7033 163.139C61.4447 162.346 61.7464 161.328 62.6083 160.085C63.4917 158.799 64.3752 158.188 65.2586 158.252C66.2929 158.317 67.101 159.421 67.6828 161.564ZM63.0608 162.625C63.1254 163.075 63.718 163.482 64.8385 163.846C65.9159 164.189 66.5731 164.254 66.8101 164.039C66.9825 163.889 66.8855 163.171 66.5192 161.885C66.1313 160.514 65.6788 159.785 65.1617 159.699C64.7307 159.635 64.2567 159.924 63.7395 160.567C63.1577 161.253 62.9315 161.939 63.0608 162.625Z" fill="#0D131A"/>
<path d="M55.9179 162.818C55.9179 163.311 56.5105 163.825 57.6956 164.361C58.8592 164.875 59.5272 165.015 59.6995 164.779C59.8935 164.543 59.8396 163.846 59.5379 162.689C59.2147 161.446 58.7945 160.771 58.2774 160.664C57.7818 160.557 57.2647 160.782 56.726 161.339C56.2304 161.853 55.961 162.325 55.9179 162.753V162.818ZM55.8856 160.278C56.8122 159.421 57.631 159.056 58.342 159.185C59.4194 159.378 60.1951 160.503 60.6692 162.56C61.1217 164.511 61.1325 165.668 60.7015 166.033C60.2921 166.418 59.1501 166.204 57.2754 165.39C55.3146 164.575 54.3773 163.654 54.4635 162.625C54.5281 161.896 55.0021 161.114 55.8856 160.278Z" fill="#0D131A"/>
<path d="M111.899 159.346C111.964 159.774 112.589 160.181 113.774 160.567C114.916 160.932 115.562 161.017 115.713 160.824C115.864 160.631 115.767 159.967 115.422 158.831C115.056 157.631 114.657 157.009 114.226 156.966C113.86 156.924 113.364 157.202 112.739 157.802C112.115 158.424 111.834 158.938 111.899 159.346ZM111.931 157.192C113.052 156.12 113.935 155.691 114.582 155.906C115.401 156.206 116.069 157.224 116.586 158.96C117.081 160.61 117.168 161.585 116.844 161.885C116.521 162.164 115.465 162.067 113.677 161.596C111.845 161.103 110.822 160.556 110.606 159.956C110.348 159.206 110.789 158.285 111.931 157.192Z" fill="#0D131A"/>
<path d="M107.794 161.917C108.742 162.239 109.292 162.325 109.443 162.175C109.593 162.025 109.561 161.414 109.346 160.342C109.109 159.206 108.775 158.585 108.344 158.478C107.913 158.37 107.406 158.606 106.825 159.185C106.243 159.785 106.006 160.31 106.113 160.76C106.243 161.21 106.803 161.596 107.794 161.917ZM108.602 157.288C109.313 157.459 109.906 158.392 110.38 160.085C110.811 161.735 110.854 162.818 110.509 163.332C110.294 163.654 109.335 163.514 107.633 162.914C105.866 162.293 104.918 161.639 104.788 160.953C104.637 160.267 105.047 159.442 106.016 158.478C107.008 157.492 107.87 157.095 108.602 157.288Z" fill="#0D131A"/>
<path d="M101.265 161.853C102.213 162.368 102.784 162.56 102.978 162.432C103.15 162.325 103.172 161.703 103.043 160.567C102.892 159.367 102.59 158.692 102.138 158.542C101.707 158.392 101.19 158.542 100.586 158.992C100.004 159.421 99.7243 159.849 99.7458 160.278C99.7674 160.792 100.274 161.317 101.265 161.853ZM102.493 157.352C103.398 157.545 103.937 158.606 104.109 160.535C104.26 162.357 104.152 163.396 103.786 163.653C103.377 163.911 102.364 163.611 100.748 162.753C99.1102 161.853 98.2591 161.071 98.1944 160.406C98.1298 159.785 98.593 159.078 99.5842 158.285C100.64 157.47 101.61 157.159 102.493 157.352Z" fill="#0D131A"/>
<path d="M50.3259 163.879C51.468 164.457 52.1252 164.639 52.2976 164.425C52.4915 164.211 52.4592 163.536 52.2006 162.4C51.9205 161.221 51.5865 160.578 51.1986 160.471C50.7461 160.321 50.1967 160.492 49.5502 160.985C48.9038 161.478 48.5806 161.96 48.5806 162.432C48.6021 162.796 49.1839 163.278 50.3259 163.879ZM51.4895 159.024C52.4161 159.217 53.0733 160.342 53.4611 162.4C53.8274 164.372 53.8167 165.475 53.4288 165.711C52.7608 166.161 51.5542 165.925 49.8088 165.004C48.085 164.104 47.1907 163.3 47.1261 162.593C47.0399 161.778 47.5463 160.932 48.6452 160.053C49.7226 159.195 50.6707 158.853 51.4895 159.024Z" fill="#0D131A"/>
</svg>
